<svg width="20" height="20" viewBox="0 0 20 20" fill="none" xmlns="http://www.w3.org/2000/svg">
<path d="M10.0001 18.3327C5.39758 18.3327 1.66675 14.6018 1.66675 9.99935C1.66675 5.39685 5.39758 1.66602 10.0001 1.66602C14.6026 1.66602 18.3334 5.39685 18.3334 9.99935C18.3334 14.6018 14.6026 18.3327 10.0001 18.3327ZM5.84425 15.2127C7.02387 16.1558 8.48981 16.6684 10.0001 16.666C11.6417 16.666 13.1442 16.0727 14.3059 15.0893C13.7632 14.5325 13.1143 14.0901 12.3976 13.7884C11.6809 13.4866 10.911 13.3317 10.1334 13.3327C9.32724 13.3318 8.52967 13.4984 7.7913 13.822C7.05294 14.1457 6.3899 14.6192 5.84425 15.2127V15.2127ZM4.68008 14.016C5.38046 13.2727 6.22564 12.6808 7.16353 12.2766C8.10142 11.8724 9.11215 11.6646 10.1334 11.666C11.1181 11.6647 12.0934 11.858 13.0032 12.2347C13.913 12.6113 14.7395 13.164 15.4351 13.861C16.1485 12.857 16.5698 11.6749 16.6522 10.4459C16.7347 9.21701 16.475 7.98925 15.9022 6.8989C15.3293 5.80854 14.4655 4.8982 13.4067 4.26889C12.3479 3.63957 11.1355 3.31588 9.90392 3.33373C8.67235 3.35157 7.4698 3.71025 6.42968 4.36998C5.38956 5.02971 4.55255 5.96468 4.01149 7.07118C3.47043 8.17768 3.24649 9.41244 3.36451 10.6385C3.48253 11.8645 3.93789 13.0339 4.68008 14.0168V14.016ZM10.0001 10.8327C9.11603 10.8327 8.26818 10.4815 7.64306 9.85637C7.01794 9.23125 6.66675 8.3834 6.66675 7.49935C6.66675 6.61529 7.01794 5.76745 7.64306 5.14233C8.26818 4.51721 9.11603 4.16602 10.0001 4.16602C10.8841 4.16602 11.732 4.51721 12.3571 5.14233C12.9822 5.76745 13.3334 6.61529 13.3334 7.49935C13.3334 8.3834 12.9822 9.23125 12.3571 9.85637C11.732 10.4815 10.8841 10.8327 10.0001 10.8327ZM10.0001 9.16602C10.4421 9.16602 10.866 8.99042 11.1786 8.67786C11.4912 8.3653 11.6667 7.94138 11.6667 7.49935C11.6667 7.05732 11.4912 6.6334 11.1786 6.32084C10.866 6.00828 10.4421 5.83268 10.0001 5.83268C9.55805 5.83268 9.13413 6.00828 8.82157 6.32084C8.50901 6.6334 8.33342 7.05732 8.33342 7.49935C8.33342 7.94138 8.50901 8.3653 8.82157 8.67786C9.13413 8.99042 9.55805 9.16602 10.0001 9.16602Z" fill="#BDC2C6"/>
</svg>
