<svg width="16" height="16" viewBox="0 0 16 16" fill="none" xmlns="http://www.w3.org/2000/svg">
<g clip-path="url(#clip0_4712_120161)">
<path d="M3.58141 6.9006L3.27091 8.34966C3.19566 8.70122 3.18016 9.06497 3.21066 9.42435L2.33066 10.33C2.16641 10.499 1.92291 10.3165 1.96516 10.0559L2.35116 7.65966C2.37766 7.49529 2.28466 7.33841 2.15116 7.32247L0.204661 7.08654C-0.00708879 7.06091 -0.0760889 6.71685 0.101161 6.56966L1.72991 5.21654C1.84141 5.12373 1.86441 4.9306 1.77941 4.80123L0.536662 2.91341C0.401412 2.7081 0.547412 2.40404 0.756162 2.45654L2.67316 2.93904C2.80466 2.97216 2.93016 2.85591 2.94316 2.68904L3.13191 0.255914C3.15241 -0.00908577 3.42766 -0.0950233 3.54567 0.126539L4.62817 2.16216C4.70242 2.30154 4.85692 2.33029 4.96042 2.22404L6.47042 0.670602C6.63467 0.501539 6.87792 0.684039 6.83592 0.944664L6.55267 2.69966C6.48492 2.79498 6.41692 2.88998 6.35492 2.99341L5.55117 4.33623L5.28342 4.78373C4.46517 5.05748 3.80392 5.86279 3.58141 6.9006ZM15.9457 11.0415L15.6352 12.4903C15.5569 12.8553 15.4007 13.1656 15.1964 13.4078C15.1285 13.4882 15.0552 13.5614 14.9774 13.6265L14.6277 15.2587C14.5992 15.3922 14.5502 15.5118 14.4864 15.6143C14.2947 15.9218 13.9679 16.0731 13.6479 15.9659L12.8752 15.7072C12.4484 15.5643 12.1952 15.0159 12.3094 14.4825L12.5164 13.5165L6.33442 11.4459L6.12742 12.4118C6.01317 12.9453 5.57442 13.2618 5.14767 13.119L4.37492 12.8603C4.05492 12.7531 3.83242 12.4178 3.78942 12.0318C3.77517 11.9031 3.78067 11.7687 3.80917 11.6356L4.15892 10.0034C4.11755 9.89835 4.08334 9.7891 4.05667 9.67685C3.97667 9.33966 3.96542 8.9731 4.04367 8.6081L4.35417 7.15904C4.48692 6.54029 4.83817 6.0706 5.27642 5.83997C5.42378 5.76236 5.57957 5.71265 5.73867 5.69247L6.19192 4.93529L6.99567 3.59248C7.08192 3.44841 7.17542 3.31435 7.27567 3.19123C7.47567 2.94466 7.70142 2.73998 7.94417 2.58154C8.06567 2.50216 8.19142 2.43435 8.32042 2.37873C8.57867 2.26685 8.85017 2.20279 9.12642 2.18998C9.40267 2.17716 9.68417 2.2156 9.96217 2.30873L13.0292 3.33591C13.3072 3.42904 13.5662 3.57154 13.8004 3.7556C14.15 4.02997 14.4463 4.39827 14.6677 4.83373C14.8882 5.26748 15.0337 5.76623 15.0847 6.30216L15.2437 7.96747L15.3334 8.90654C15.593 9.14083 15.7909 9.46643 15.9019 9.84185C16.0117 10.2131 16.0342 10.629 15.9457 11.0415ZM6.38967 7.32341C5.92592 7.1681 5.53442 7.44966 5.41042 8.02747C5.28642 8.60529 5.51317 9.09372 5.97667 9.24904C6.44042 9.40435 7.11517 9.73372 7.23892 9.15591C7.36292 8.5781 6.85317 7.47872 6.38967 7.32341ZM13.6549 8.20372L13.4959 6.53841C13.4814 6.38622 13.4487 6.2406 13.4004 6.10529C13.2554 5.69935 12.9704 5.38622 12.6149 5.26716L9.54792 4.23998C9.31625 4.1624 9.07131 4.17337 8.84467 4.27146C8.61804 4.36954 8.42011 4.55026 8.27642 4.79029L7.47267 6.1331L11.7727 7.5731L13.6549 8.20372ZM14.1172 9.91154C13.6534 9.75622 12.7722 10.39 12.6484 10.9675C12.5247 11.5453 13.2407 11.6818 13.7044 11.8372C14.1682 11.9925 14.5597 11.7109 14.6837 11.1331C14.8074 10.5556 14.5809 10.0668 14.1172 9.91154Z" fill="#F6BACB"/>
</g>
<defs>
<clipPath id="clip0_4712_120161">
<rect width="16" height="16" fill="white"/>
</clipPath>
</defs>
</svg>
