<svg width="20" height="20" viewBox="0 0 20 20" fill="none" xmlns="http://www.w3.org/2000/svg">
<path d="M9.99984 13.3337C11.8408 13.3337 13.3332 11.8413 13.3332 10.0003C13.3332 8.15938 11.8408 6.66699 9.99984 6.66699C8.15889 6.66699 6.6665 8.15938 6.6665 10.0003C6.6665 11.8413 8.15889 13.3337 9.99984 13.3337Z" stroke="#BDC2C6" stroke-width="2" stroke-linecap="round" stroke-linejoin="round"/>
<path d="M13.3332 6.66647V10.8331C13.3332 11.4962 13.5966 12.1321 14.0654 12.6009C14.5343 13.0697 15.1701 13.3331 15.8332 13.3331C16.4962 13.3331 17.1321 13.0697 17.6009 12.6009C18.0698 12.1321 18.3332 11.4962 18.3332 10.8331V9.99981C18.3331 8.119 17.6967 6.29354 16.5276 4.82025C15.3584 3.34696 13.7253 2.3125 11.8937 1.88506C10.0621 1.45762 8.13979 1.66234 6.4393 2.46595C4.73881 3.26955 3.36018 4.62477 2.52756 6.31124C1.69494 7.99772 1.45732 9.91626 1.85332 11.7549C2.24932 13.5936 3.25566 15.2442 4.7087 16.4384C6.16175 17.6326 7.97604 18.3001 9.85657 18.3324C11.7371 18.3648 13.5733 17.76 15.0665 16.6165" stroke="#BDC2C6" stroke-width="2" stroke-linecap="round" stroke-linejoin="round"/>
</svg>
