<svg width="20" height="20" viewBox="0 0 20 20" fill="none" xmlns="http://www.w3.org/2000/svg">
<path d="M15.8334 5.83398H20.0001V7.50065H15.8334V5.83398ZM14.1667 10.0007H20.0001V11.6673H14.1667V10.0007ZM16.6667 14.1673H20.0001V15.834H16.6667V14.1673ZM1.66675 18.334C1.66675 16.5659 2.36913 14.8702 3.61937 13.6199C4.86961 12.3697 6.5653 11.6673 8.33342 11.6673C10.1015 11.6673 11.7972 12.3697 13.0475 13.6199C14.2977 14.8702 15.0001 16.5659 15.0001 18.334H13.3334C13.3334 17.0079 12.8066 15.7361 11.8689 14.7984C10.9313 13.8608 9.6595 13.334 8.33342 13.334C7.00733 13.334 5.73556 13.8608 4.79788 14.7984C3.8602 15.7361 3.33341 17.0079 3.33341 18.334H1.66675ZM8.33342 10.834C5.57091 10.834 3.33341 8.59648 3.33341 5.83398C3.33341 3.07148 5.57091 0.833984 8.33342 0.833984C11.0959 0.833984 13.3334 3.07148 13.3334 5.83398C13.3334 8.59648 11.0959 10.834 8.33342 10.834ZM8.33342 9.16732C10.1751 9.16732 11.6667 7.67565 11.6667 5.83398C11.6667 3.99232 10.1751 2.50065 8.33342 2.50065C6.49175 2.50065 5.00008 3.99232 5.00008 5.83398C5.00008 7.67565 6.49175 9.16732 8.33342 9.16732Z" fill="#BDC2C6"/>
</svg>
