<svg width="18" height="19" viewBox="0 0 18 19" fill="none" xmlns="http://www.w3.org/2000/svg">
<path d="M10.5 11.189V17H3C2.99977 16.0842 3.20919 15.1804 3.61222 14.358C4.01526 13.5357 4.6012 12.8165 5.32516 12.2555C6.04912 11.6946 6.89188 11.3069 7.78887 11.122C8.68585 10.9371 9.61325 10.96 10.5 11.189ZM9 10.25C6.51375 10.25 4.5 8.23625 4.5 5.75C4.5 3.26375 6.51375 1.25 9 1.25C11.4862 1.25 13.5 3.26375 13.5 5.75C13.5 8.23625 11.4862 10.25 9 10.25ZM14.5635 13.25H17.253V14.75H14.5635L15.9352 16.121L14.8748 17.1823L11.6925 14L14.8748 10.8178L15.9352 11.879L14.5635 13.25Z" fill="#F6BACB"/>
</svg>
