<svg width="16" height="16" viewBox="0 0 16 16" fill="none" xmlns="http://www.w3.org/2000/svg">
<path d="M13.4397 9.28L12.2664 6.93333C12.1657 6.76948 12.0244 6.63434 11.8563 6.54093C11.6881 6.44752 11.4988 6.39898 11.3064 6.4H4.69307C4.50073 6.39898 4.31136 6.44752 4.14322 6.54093C3.97508 6.63434 3.83382 6.76948 3.73307 6.93333L2.55974 9.28L1.23707 10.5088C1.18332 10.5587 1.14043 10.619 1.11106 10.6862C1.0817 10.7534 1.0665 10.8259 1.06641 10.8992V15.4667C1.06641 15.6081 1.1226 15.7438 1.22262 15.8438C1.32264 15.9438 1.45829 16 1.59974 16H3.73307C3.94641 16 4.26641 15.7867 4.26641 15.5733V14.9333H11.7331V15.4667C11.7331 15.68 11.9464 16 12.1597 16H14.3997C14.5412 16 14.6768 15.9438 14.7769 15.8438C14.8769 15.7438 14.9331 15.6081 14.9331 15.4667V10.8992C14.933 10.8259 14.9178 10.7534 14.8884 10.6862C14.8591 10.619 14.8162 10.5587 14.7624 10.5088L13.4397 9.28ZM4.79974 7.46667H11.1997L12.2664 9.6H3.73307L4.79974 7.46667ZM5.33307 12.3733C5.33307 12.5867 5.01307 12.8 4.79974 12.8H2.55974C2.34641 12.8 2.13307 12.48 2.13307 12.2667V11.0933C2.23974 10.7733 2.45307 10.56 2.77307 10.6667L4.90641 11.0933C5.11974 11.0933 5.33307 11.4133 5.33307 11.6267V12.3733ZM13.8664 12.2667C13.8664 12.48 13.6531 12.8 13.4397 12.8H11.1997C10.9864 12.8 10.6664 12.5867 10.6664 12.3733V11.6267C10.6664 11.4133 10.8797 11.0933 11.0931 11.0933L13.2264 10.6667C13.5464 10.56 13.7597 10.7733 13.8664 11.0933V12.2667ZM8.53307 4.26667H7.46641L6.39974 0H9.59974L8.53307 4.26667ZM1.17307 1.92L3.94641 0.32L5.11974 4.58667L4.26641 5.01333L1.17307 1.92ZM12.0531 0.32L14.8264 1.92L11.7331 5.12L10.7731 4.58667L12.0531 0.32Z" fill="#F6BACB"/>
</svg>
